<?xml version="1.0" encoding="UTF-8" standalone="no"?>
<!-- Created with Inkscape (http://www.inkscape.org/) -->

<svg
   width="80"
   height="80"
   viewBox="0 0 21.166667 21.166666"
   version="1.1"
   id="svg5"
   inkscape:version="1.3.2 (091e20e, 2023-11-25, custom)"
   sodipodi:docname="faviconn.svg"
   inkscape:export-filename="favicon.png"
   inkscape:export-xdpi="96"
   inkscape:export-ydpi="96"
   xmlns:inkscape="http://www.inkscape.org/namespaces/inkscape"
   xmlns:sodipodi="http://sodipodi.sourceforge.net/DTD/sodipodi-0.dtd"
   xmlns="http://www.w3.org/2000/svg"
   xmlns:svg="http://www.w3.org/2000/svg">
  <sodipodi:namedview
     id="namedview7"
     pagecolor="#ffffff"
     bordercolor="#000000"
     borderopacity="1"
     inkscape:showpageshadow="false"
     inkscape:pageopacity="0.0"
     inkscape:pagecheckerboard="true"
     inkscape:deskcolor="#d1d1d1"
     inkscape:document-units="mm"
     showgrid="false"
     inkscape:zoom="2.847956"
     inkscape:cx="110.43008"
     inkscape:cy="87.079998"
     inkscape:window-width="1920"
     inkscape:window-height="1017"
     inkscape:window-x="-8"
     inkscape:window-y="-8"
     inkscape:window-maximized="1"
     inkscape:current-layer="svg5" />
  <defs
     id="defs2" />
  <path
     id="path1"
     style="fill:#ffffff;stroke-width:31.9429;paint-order:stroke markers fill"
     d="M 10.583333,0 C 8.4865958,0 6.7304028,1.3226171 6.2762988,3.0969603 H 11.119272 V 3.6757805 H 6.1769948 c -0.0098,0.1093044 -0.01606,0.2195243 -0.01595,0.3311367 V 5.1435629 H 11.119277 V 5.7224355 H 6.1610388 V 7.1902176 H 11.119272 V 7.7690905 H 6.1610388 v 2.8124845 c 0,2.212955 1.979926,4.00697 4.4222942,4.00697 2.442369,0 4.422296,-1.794015 4.422296,-4.00697 V 4.0069172 C 15.005629,1.7939623 13.025703,0 10.583333,0 Z M 3.6795868,9.9721023 c -0.73137,0 -1.324285,0.5684177 -1.324285,1.2695937 -1.5e-5,3.754578 2.910946,6.867534 6.699365,7.538675 v 0.857628 1.528667 h 3.0571752 v -1.528667 -0.857575 c 3.788516,-0.671069 6.699537,-3.784084 6.699523,-7.538728 0,-0.701177 -0.592863,-1.2695937 -1.324231,-1.2695937 -0.731372,0 -1.324286,0.5684177 -1.324285,1.2695937 10e-6,2.828287 -2.459217,5.135278 -5.579516,5.13527 -3.1202972,8e-6 -5.5794732,-2.306984 -5.5794622,-5.13527 1e-6,-0.701176 -0.592914,-1.2695937 -1.324284,-1.2695937 z" />
</svg>
