<?xml version="1.0" standalone="no"?>
<!DOCTYPE svg PUBLIC "-//W3C//DTD SVG 20010904//EN"
 "http://www.w3.org/TR/2001/REC-SVG-20010904/DTD/svg10.dtd">
<svg version="1.0" xmlns="http://www.w3.org/2000/svg"
 width="794.000000pt" height="794.000000pt" viewBox="0 0 794.000000 794.000000"
 preserveAspectRatio="xMidYMid meet">
<metadata>
Created by potrace 1.14, written by Peter Selinger 2001-2017
</metadata>
<g transform="translate(0.000000,794.000000) scale(0.100000,-0.100000)"
fill="#000000" stroke="none">
<path d="M3808 7935 c-1 -1 -31 -6 -66 -9 -34 -4 -97 -13 -140 -22 -42 -8 -88
-17 -102 -20 -14 -3 -78 -23 -143 -44 -481 -161 -879 -521 -1047 -950 -26 -64
-60 -169 -60 -181 0 -5 432 -10 968 -11 l967 -3 0 -110 0 -110 -986 -3 -987
-2 -5 -21 c-3 -12 -6 -145 -7 -295 l-1 -273 798 0 c439 0 886 -1 993 -1 l195
0 -1 -102 c-1 -57 -2 -109 -3 -115 -1 -10 -206 -13 -991 -13 l-990 0 0 -293 0
-293 968 0 c532 1 978 -1 992 -5 25 -5 25 -7 26 -105 0 -54 -2 -105 -4 -111
-3 -10 -211 -13 -993 -13 l-989 0 0 -597 c1 -530 6 -705 25 -793 2 -14 7 -34
9 -45 42 -209 171 -474 318 -650 182 -218 450 -409 727 -516 304 -118 689
-156 1016 -99 72 12 133 24 137 27 5 2 17 6 28 9 11 2 28 6 38 8 102 23 330
123 460 202 271 164 497 409 631 683 61 125 92 221 137 431 11 51 14 2930 3
3021 -9 83 -60 290 -85 348 -100 237 -206 395 -373 561 -98 97 -136 127 -251
204 -162 109 -329 187 -516 241 -93 27 -95 27 -229 51 -78 14 -456 29 -467 19z"/>
<path d="M1275 4295 c-149 -28 -259 -87 -365 -194 -88 -89 -141 -182 -171
-297 -42 -163 -14 -542 62 -839 12 -44 22 -88 24 -97 2 -9 23 -72 46 -140 149
-434 387 -816 714 -1143 142 -143 181 -177 300 -271 258 -201 566 -376 855
-484 47 -17 101 -38 121 -45 40 -15 243 -75 274 -81 11 -2 32 -6 48 -10 l27
-6 0 -344 0 -344 760 0 760 0 0 344 0 343 78 18 c442 103 929 348 1311 660
189 154 414 397 565 608 56 78 196 307 196 320 0 5 9 20 20 34 11 14 20 33 20
42 0 10 5 22 11 28 20 20 98 210 150 363 29 87 84 302 94 369 3 20 8 48 10 61
3 14 8 48 11 75 3 28 8 61 11 75 2 14 6 106 9 205 3 139 0 195 -11 245 -45
190 -174 352 -349 439 -108 54 -181 72 -301 76 -268 6 -507 -135 -625 -370
-49 -96 -67 -181 -74 -338 -3 -65 -8 -132 -10 -150 -3 -18 -8 -48 -11 -67 -15
-108 -69 -284 -123 -400 -167 -364 -476 -673 -852 -854 -121 -58 -353 -139
-430 -151 -24 -4 -47 -8 -51 -11 -4 -2 -31 -6 -60 -10 -30 -3 -57 -8 -60 -10
-12 -7 -196 -18 -294 -18 -131 0 -256 11 -358 30 -45 9 -92 18 -103 20 -12 2
-61 15 -109 29 -511 148 -935 493 -1146 934 -65 134 -77 166 -114 307 -30 112
-44 204 -50 342 -10 220 -40 320 -135 447 -153 205 -421 308 -675 260z"/>
</g>
</svg>
