<?xml version="1.0" standalone="no"?>
<!DOCTYPE svg PUBLIC "-//W3C//DTD SVG 20010904//EN"
 "http://www.w3.org/TR/2001/REC-SVG-20010904/DTD/svg10.dtd">
<svg version="1.0" xmlns="http://www.w3.org/2000/svg"
 width="794.000000pt" height="794.000000pt" viewBox="0 0 794.000000 794.000000"
 preserveAspectRatio="xMidYMid meet">
<metadata>
Created by potrace 1.14, written by Peter Selinger 2001-2017
</metadata>
<g transform="translate(0.000000,794.000000) scale(0.100000,-0.100000)"
fill="#000000" stroke="none">
<path d="M3820 7433 c-96 -9 -299 -51 -345 -72 -11 -5 -42 -17 -70 -26 -245
-87 -507 -277 -687 -500 -124 -154 -241 -384 -288 -567 l-18 -68 876 -2 876
-3 1 -109 c0 -70 -4 -110 -11 -113 -6 -2 -409 -5 -895 -6 l-884 -2 -3 -292 -2
-293 812 0 c447 0 851 0 898 0 l86 0 -1 -112 -1 -113 -897 -3 -897 -2 0 -294
0 -294 895 2 c589 1 896 -2 898 -9 1 -5 2 -57 2 -115 l0 -105 -898 -3 -898 -2
4 -663 c2 -364 7 -678 10 -697 47 -257 122 -450 255 -654 222 -342 598 -596
1007 -681 111 -23 180 -29 320 -30 139 0 241 9 335 30 14 4 36 8 50 11 14 3
72 21 130 40 388 130 709 404 908 775 71 132 141 345 169 509 11 69 14 2994 2
3065 -5 33 -15 87 -22 120 -6 33 -12 62 -12 65 -13 64 -59 193 -102 288 -113
248 -315 489 -539 644 -185 129 -441 234 -644 264 -19 3 -46 8 -60 10 -30 6
-311 12 -360 7z"/>
<path d="M1895 3278 c-54 -12 -100 -45 -127 -93 -19 -33 -22 -55 -22 -130 0
-261 52 -527 155 -788 285 -721 939 -1252 1690 -1376 68 -11 138 -21 154 -23
l30 -3 5 -365 c5 -342 6 -367 25 -395 43 -66 95 -96 166 -97 62 0 128 36 161
89 23 38 23 41 25 373 1 184 3 349 3 367 0 28 3 31 33 31 17 0 48 3 67 7 19 3
62 10 95 16 33 5 98 19 145 30 77 19 127 34 275 85 138 48 430 215 565 323
269 215 483 482 627 781 72 149 73 151 101 230 19 53 58 188 68 233 38 177 54
296 59 452 2 82 -1 111 -15 142 -70 156 -288 151 -348 -8 -5 -13 -12 -77 -16
-141 -6 -125 -19 -227 -37 -306 -6 -26 -13 -58 -15 -71 -13 -65 -91 -277 -138
-371 -51 -104 -145 -256 -195 -316 -14 -17 -36 -44 -49 -60 -42 -54 -177 -186
-252 -247 -325 -262 -712 -404 -1127 -411 -805 -15 -1527 497 -1784 1265 -58
174 -86 322 -95 513 -3 66 -10 131 -15 144 -34 89 -123 139 -214 120z"/>
</g>
</svg>
