<?xml version="1.0" standalone="no"?>
<!DOCTYPE svg PUBLIC "-//W3C//DTD SVG 20010904//EN"
 "http://www.w3.org/TR/2001/REC-SVG-20010904/DTD/svg10.dtd">
<svg version="1.0" xmlns="http://www.w3.org/2000/svg"
 width="700.000000pt" height="700.000000pt" viewBox="0 0 700.000000 700.000000"
 preserveAspectRatio="xMidYMid meet">
<metadata>
Created by potrace 1.14, written by Peter Selinger 2001-2017
</metadata>
<g transform="translate(0.000000,700.000000) scale(0.100000,-0.100000)"
fill="#000000" stroke="none">
<path d="M3300 6989 c-455 -58 -858 -287 -1105 -629 -88 -122 -180 -313 -208
-430 l-6 -25 854 2 855 1 0 -102 0 -103 -857 1 c-472 1 -866 -2 -875 -7 -16
-7 -18 -29 -18 -260 l0 -252 872 0 873 0 3 -102 3 -103 -828 0 c-455 0 -849 0
-875 0 l-48 0 0 -258 0 -258 858 1 c471 0 865 -1 875 -4 15 -3 17 -16 17 -102
l0 -99 -182 0 c-101 0 -495 0 -876 0 l-693 -1 1 -563 c1 -561 2 -563 27 -682
37 -179 100 -330 201 -484 41 -62 34 -53 122 -152 121 -137 261 -245 432 -336
131 -68 259 -115 403 -146 156 -33 211 -39 365 -40 172 0 357 23 460 57 19 6
37 12 40 12 41 11 80 25 155 56 352 147 621 393 780 714 54 111 107 276 122
382 10 74 11 2621 0 2688 -15 102 -20 122 -52 221 -172 526 -659 910 -1265
999 -64 10 -364 12 -430 4z"/>
<path d="M1110 3785 c-230 -50 -413 -228 -463 -450 -18 -78 -13 -327 8 -445 2
-14 7 -45 10 -70 28 -223 118 -498 246 -753 149 -296 389 -604 632 -809 28
-24 55 -48 61 -53 61 -57 274 -205 391 -272 227 -131 506 -245 743 -304 l92
-24 0 -302 0 -303 670 0 670 0 0 304 0 304 38 7 c51 11 52 11 102 25 266 72
578 212 815 367 99 65 235 163 265 193 9 8 41 36 71 62 144 122 312 309 435
483 209 294 376 691 428 1015 4 19 8 46 11 59 2 14 7 47 10 75 3 28 8 66 11
83 13 79 11 298 -2 357 -51 222 -238 404 -462 449 -316 65 -629 -124 -711
-430 -6 -22 -13 -91 -16 -154 -14 -278 -67 -471 -193 -694 -50 -89 -61 -104
-147 -208 -149 -180 -325 -317 -540 -421 -104 -51 -241 -103 -294 -113 -14 -2
-28 -6 -32 -8 -13 -9 -215 -44 -284 -50 -156 -14 -348 -8 -470 15 -27 5 -64
12 -81 15 -17 2 -71 16 -120 30 -373 107 -693 327 -899 620 -178 253 -257 496
-271 835 -7 158 -58 281 -163 393 -79 82 -206 153 -313 173 -61 11 -193 11
-248 -1z"/>
</g>
</svg>
